<svg version="1.1" xmlns="http://www.w3.org/2000/svg" xmlns:xlink="http://www.w3.org/1999/xlink" width="256.000000pt" height="256.000000pt" viewBox="0,0,256,256"><g fill="#a73b7c" fill-rule="nonzero" stroke="none" stroke-width="1" stroke-linecap="butt" stroke-linejoin="miter" stroke-miterlimit="10" stroke-dasharray="" stroke-dashoffset="0" font-family="none" font-weight="none" font-size="none" text-anchor="none" style="mix-blend-mode: normal"><g transform="translate(0,0)"><g><g transform="translate(0.02227,-0.21801)"><g transform="translate(0,256) scale(0.1,-0.1)"><path d="M1735,2535c-21,-20 -25,-34 -25,-80c0,-50 -2,-56 -18,-51c-16,5 -22,-5 -41,-76c-54,-196 -167,-471 -243,-588c-19,-30 -61,-84 -93,-120c-40,-44 -74,-98 -107,-167l-50,-103h-327c-410,0 -381,12 -381,-159c0,-110 1,-119 23,-139c13,-12 30,-22 38,-22c11,0 38,-110 113,-466c115,-547 111,-529 139,-549c33,-23 1001,-23 1034,0c28,20 24,2 139,549c80,379 102,466 115,466c8,0 25,10 37,23c20,21 22,34 22,139c0,114 -1,117 -26,137c-20,16 -41,21 -84,21h-58l-5,53c-4,28 -13,81 -21,117c-31,131 -15,390 42,674c26,130 27,136 9,142c-17,5 -16,8 8,49c51,88 29,121 -98,153c-108,27 -113,27 -142,-3zM1942,2464c12,-8 -41,-104 -56,-104c-8,0 -37,5 -65,12l-51,11v57c0,31 2,59 6,62c5,5 150,-28 166,-38zM1812,2290c39,-11 72,-21 73,-22c2,-2 -6,-47 -16,-100c-16,-84 -49,-321 -49,-353c0,-6 -32,-22 -72,-34l-72,-24l-52,56l-52,56l44,108c24,59 60,159 80,221c20,61 38,112 40,112c2,0 36,-9 76,-20zM1605,1753l52,-58l70,23c89,28 95,28 91,-5c-3,-25 -12,-31 -91,-60l-89,-33l-19,22c-84,101 -100,127 -89,147c6,12 13,21 17,21c3,0 29,-26 58,-57zM1555,1635c68,-86 57,-84 183,-37l82,31v-37v-38l-104,-34l-105,-34l-44,50c-115,129 -111,123 -97,149c7,14 16,25 19,25c4,0 33,-34 66,-75zM1506,1523c42,-49 83,-89 91,-91c7,-2 63,13 124,33c61,21 112,35 113,34c7,-9 26,-100 26,-123v-26h-305h-305l11,27c32,85 133,233 159,233c4,0 43,-39 86,-87zM2030,1190v-80h-750h-750v80v80h750h750zM1950,1027c0,-17 -121,-571 -125,-576c-4,-3 -55,-6 -113,-6c-99,0 -112,2 -167,30c-66,33 -155,116 -174,162c-11,28 -10,32 17,60c65,64 63,159 -3,223c-30,29 -43,34 -92,37c-46,3 -65,0 -91,-16c-102,-65 -96,-223 12,-272c23,-10 53,-19 67,-19c20,0 30,-8 44,-39c9,-22 42,-64 72,-94c95,-95 233,-146 359,-133l61,6l-12,-52l-12,-53h-513h-514l-78,365c-42,201 -77,368 -78,373c0,4 301,7 670,7c369,0 670,-1 670,-3zM1323,899c96,-49 64,-189 -43,-189c-101,0 -138,129 -52,183c32,19 65,21 95,6zM1780,218c0,-7 -4,-29 -9,-48c-5,-19 -12,-47 -15,-62l-6,-28h-470h-470l-5,23c-14,63 -25,113 -25,120c0,4 225,7 500,7c393,0 500,-3 500,-12z"></path></g></g></g></g></g></svg>