<svg version="1.1" xmlns="http://www.w3.org/2000/svg" xmlns:xlink="http://www.w3.org/1999/xlink" width="256.000000pt" height="256.000000pt" viewBox="0,0,256,256"><g fill="#a73b7c" fill-rule="nonzero" stroke="none" stroke-width="1" stroke-linecap="butt" stroke-linejoin="miter" stroke-miterlimit="10" stroke-dasharray="" stroke-dashoffset="0" font-family="none" font-weight="none" font-size="none" text-anchor="none" style="mix-blend-mode: normal"><g><g><g><g transform="translate(0,256) scale(0.1,-0.1)"><path d="M760,2547c-14,-7 -33,-28 -42,-47c-16,-31 -18,-68 -18,-310c0,-302 -5,-342 -59,-448c-16,-31 -48,-82 -71,-112c-56,-74 -106,-182 -126,-269c-15,-64 -20,-73 -48,-85c-17,-8 -42,-24 -55,-36c-46,-44 -51,-75 -51,-298c0,-200 1,-211 23,-253l24,-44l-24,-44c-22,-42 -23,-53 -23,-253c0,-227 5,-251 56,-300c16,-15 42,-32 57,-37c19,-8 302,-11 879,-11c829,0 853,1 892,20c23,11 52,36 66,57c25,36 25,41 28,257c3,217 3,222 -21,266l-24,45l24,44c22,42 23,53 23,253c0,223 -5,254 -51,298c-13,12 -38,28 -55,36c-28,12 -33,21 -47,83c-21,92 -66,189 -126,270c-120,163 -131,210 -131,561c0,367 -1,370 -183,370h-99l-34,-34l-34,-34v-279c0,-364 -13,-424 -131,-579c-21,-27 -51,-76 -67,-107l-29,-57l-47,77c-26,43 -67,106 -90,141c-83,120 -89,154 -96,505l-5,309l-33,29c-31,28 -36,29 -130,29c-57,0 -107,-5 -122,-13zM950,2310v-160h-75h-75v153c0,85 3,157 7,160c3,4 37,7 75,7h68zM1758,2308l3,-158h-76h-75v160v161l73,-3l72,-3zM958,1958c12,-119 41,-216 89,-295c18,-31 33,-57 33,-59c0,-2 -90,-4 -200,-4c-110,0 -200,2 -200,4c0,2 18,39 40,82c49,98 69,173 77,287l6,87h72h72zM1760,2006c0,-112 48,-283 101,-358c11,-14 19,-31 19,-37c0,-8 -62,-11 -200,-11c-110,0 -200,2 -200,6c0,3 11,22 25,42c48,70 85,186 97,303l12,109h73h73zM1155,1501c25,-40 61,-136 67,-181l3,-25l-349,-3l-349,-2l7,41c6,37 64,166 88,197c8,9 72,12 259,12h249zM1960,1498c17,-23 39,-70 50,-106c35,-113 71,-102 -329,-102h-349l14,60c13,56 53,148 76,178c8,9 72,12 259,12h249zM2125,1190c48,-18 57,-61 53,-267l-3,-185l-28,-24l-28,-24h-839h-839l-28,24l-28,24l-3,194c-3,208 2,232 48,255c32,16 1653,19 1695,3zM2147,576l28,-24v-206c0,-200 -1,-206 -23,-228l-23,-23h-849h-849l-23,23c-22,22 -23,28 -23,228v206l28,24l28,24h839h839z"></path><path d="M942,1025c-54,-45 -51,-128 6,-170c26,-19 43,-20 328,-20c333,0 340,1 369,62c23,47 13,95 -26,127l-31,26h-308h-308zM1586,965c16,-24 16,-27 -1,-45c-18,-20 -30,-20 -308,-18c-279,3 -290,4 -303,23c-12,18 -11,24 2,43c15,22 18,22 304,22h290z"></path><path d="M990,453c-94,-30 -119,-128 -49,-187l31,-26h308h308l31,26c59,49 47,144 -22,177c-30,15 -73,17 -314,16c-153,0 -285,-3 -293,-6zM1584,374c20,-20 20,-27 -1,-53c-18,-21 -22,-21 -307,-19c-278,3 -289,4 -302,23c-12,18 -11,24 2,43c15,22 18,22 304,22c249,0 291,-2 304,-16z"></path></g></g></g></g></g></svg>