<svg version="1.1" xmlns="http://www.w3.org/2000/svg" xmlns:xlink="http://www.w3.org/1999/xlink" width="256.000000pt" height="256.000000pt" viewBox="0,0,256,256"><g fill="#a73b7c" fill-rule="nonzero" stroke="none" stroke-width="1" stroke-linecap="butt" stroke-linejoin="miter" stroke-miterlimit="10" stroke-dasharray="" stroke-dashoffset="0" font-family="none" font-weight="none" font-size="none" text-anchor="none" style="mix-blend-mode: normal"><g transform="translate(0,0)"><g><g transform="translate(0,0.16112)"><g transform="translate(0,256) scale(0.1,-0.1)"><path d="M1214,2539c-10,-11 -35,-71 -54,-132l-36,-112l-133,-5c-130,-5 -133,-5 -157,-33c-46,-54 -33,-77 111,-180c119,-87 149,-95 167,-46c9,24 -14,51 -89,106l-68,48l100,6c55,3 108,9 117,13c17,8 35,50 73,164c9,29 19,52 20,50c2,-2 18,-47 35,-100c22,-70 37,-101 53,-110c12,-7 67,-15 122,-18l99,-5l-77,-55c-82,-58 -95,-77 -77,-110c19,-36 55,-24 171,61c113,84 135,111 120,152c-17,45 -37,52 -174,57l-130,5l-39,115c-23,70 -46,122 -59,133c-29,23 -72,22 -95,-4z"></path><path d="M614,2033c-3,-16 -19,-80 -34,-143c-16,-63 -50,-209 -77,-325c-46,-202 -48,-216 -48,-365c0,-150 1,-157 29,-217c17,-38 47,-80 74,-105l45,-41l-88,-322l-87,-322l-82,-13c-100,-16 -126,-25 -126,-45c0,-8 10,-20 22,-25c51,-21 401,-111 414,-106c33,13 7,46 -105,139l-33,27l82,303c45,166 86,312 91,325c6,17 16,22 42,22c90,0 226,119 297,260c39,78 130,339 206,593c20,70 41,127 44,127c3,0 24,-57 44,-127c76,-254 167,-515 206,-593c71,-141 207,-260 297,-260c26,0 36,-5 42,-22c5,-13 46,-159 91,-325l82,-303l-33,-27c-112,-93 -138,-126 -105,-139c13,-5 363,85 414,106c12,5 22,17 22,25c0,20 -26,29 -126,45l-82,13l-87,322l-88,322l45,41c27,25 57,67 74,105c28,60 29,67 29,217c0,149 -2,163 -48,365c-50,219 -116,488 -121,493c-2,1 -150,-38 -329,-87l-326,-89l-326,89c-180,49 -329,89 -331,89c-2,0 -6,-12 -10,-27zM1172,1811c4,-3 -10,-62 -31,-131c-33,-105 -42,-125 -58,-122c-43,7 -439,116 -447,123c-6,6 25,163 50,250c4,14 38,7 242,-49c130,-35 240,-67 244,-71zM1905,1806c15,-65 23,-121 18,-126c-4,-4 -62,-21 -128,-39c-66,-17 -168,-44 -227,-60l-108,-29l-36,116c-20,64 -37,124 -38,132c-1,18 476,152 485,136c4,-6 19,-64 34,-130zM850,1555c118,-32 218,-61 222,-65c12,-9 -85,-288 -128,-370c-65,-125 -162,-210 -238,-210c-65,0 -123,58 -150,149c-26,87 -20,195 19,386c19,94 35,172 35,174c0,2 6,1 13,-2c7,-2 109,-31 227,-62zM1950,1618c0,-2 16,-79 35,-173c39,-191 45,-299 19,-386c-27,-91 -85,-149 -150,-149c-76,0 -173,85 -237,207c-39,74 -141,363 -131,372c3,3 105,33 227,67c228,64 237,66 237,62z"></path></g></g></g></g></g></svg>