<svg version="1.1" xmlns="http://www.w3.org/2000/svg" xmlns:xlink="http://www.w3.org/1999/xlink" width="256.000000pt" height="256.000000pt" viewBox="0,0,256,256"><g fill="#a73b7c" fill-rule="nonzero" stroke="none" stroke-width="1" stroke-linecap="butt" stroke-linejoin="miter" stroke-miterlimit="10" stroke-dasharray="" stroke-dashoffset="0" font-family="none" font-weight="none" font-size="none" text-anchor="none" style="mix-blend-mode: normal"><g transform="translate(0,0)"><g><g transform="translate(-0.25,-0.22401)"><g transform="translate(0,256) scale(0.1,-0.1)"><path d="M1640,2253c-64,-23 -142,-105 -165,-172c-25,-77 -18,-207 17,-281c39,-86 97,-150 173,-195l69,-40l-45,-8c-65,-12 -154,0 -220,29c-69,31 -158,120 -274,274c-97,128 -146,178 -227,230c-71,46 -142,70 -208,70c-51,0 -70,-13 -70,-46c0,-30 16,-41 82,-53c70,-13 111,-30 166,-70c44,-33 47,-51 8,-51c-32,0 -134,-53 -183,-95l-42,-36l-36,40c-52,57 -122,99 -199,118c-58,14 -77,14 -134,4c-125,-23 -239,-107 -291,-214c-33,-68 -28,-90 23,-117l43,-23l-43,-81c-51,-98 -75,-185 -77,-285l-2,-76l65,-17c112,-29 293,-21 391,17c12,4 21,-6 37,-45c21,-49 22,-50 64,-50c61,0 159,49 216,108c131,134 144,295 39,469l-40,67l42,37c63,56 135,89 196,89c60,0 67,-5 130,-90c124,-166 210,-241 322,-282c86,-32 230,-29 338,6c44,14 89,32 100,40c33,25 44,20 35,-16c-18,-80 -98,-203 -165,-254l-33,-25l-65,49c-110,84 -229,132 -328,132c-194,0 -426,-195 -454,-382l-7,-47l70,-35l71,-36l-24,-52c-46,-100 -60,-173 -60,-318c0,-78 6,-160 13,-194l14,-59l126,6c150,6 266,36 380,97l72,39l33,-65l32,-66l40,5c102,11 257,130 317,243c101,187 66,412 -88,569l-52,53l35,33c52,51 130,164 152,225c11,29 22,76 23,103c2,28 6,51 10,51c15,0 216,-74 259,-95c25,-13 61,-36 79,-52c61,-51 88,-151 56,-211c-33,-62 -127,-129 -228,-161c-39,-13 -54,-37 -43,-71c10,-32 46,-33 118,-6c167,63 267,176 267,301c0,159 -112,267 -370,356c-52,18 -97,34 -99,35c-2,2 4,19 13,38c85,180 -9,423 -201,518c-79,39 -190,48 -263,21zM1847,2151c193,-88 254,-367 103,-467c-92,-61 -210,-35 -303,66c-161,173 -100,419 103,419c33,0 72,-7 97,-18zM531,1844c44,-24 119,-96 119,-113c0,-3 -15,-18 -34,-33l-33,-27l-132,54c-72,30 -138,52 -147,48c-9,-3 -14,-15 -12,-31c3,-22 17,-31 116,-72l114,-47l-192,-152c-105,-83 -194,-159 -197,-167c-7,-19 21,-49 39,-41c7,3 96,71 197,151c101,80 187,146 191,146c4,0 13,-44 20,-97c7,-54 17,-106 22,-115c11,-22 47,-23 55,-3c3,9 -3,74 -14,146l-19,130l32,24l33,25l19,-28c73,-102 96,-202 67,-279c-29,-75 -130,-173 -179,-173c-16,0 -46,83 -46,127c0,29 -5,29 -48,-3c-75,-58 -211,-88 -327,-74c-37,5 -69,10 -71,13c-3,2 2,38 10,78c21,101 75,206 132,258c25,24 43,46 39,49c-3,3 -35,23 -71,42l-64,36l29,41c83,115 232,152 352,87zM1513,1262c45,-23 102,-59 127,-81l45,-40l-50,-51l-51,-51l-219,46c-130,27 -222,42 -228,36c-5,-5 -7,-19 -5,-32c3,-23 14,-26 196,-64c105,-22 192,-43 192,-48c0,-4 -95,-113 -211,-243c-159,-178 -210,-240 -207,-257c2,-13 11,-23 24,-25c16,-2 68,50 235,237c117,132 215,238 217,236c3,-2 30,-93 62,-202c54,-186 59,-198 82,-201c16,-2 28,3 32,13c3,9 -23,114 -57,234l-64,217l52,58c60,69 64,68 140,-16c76,-84 100,-145 100,-253c0,-81 -3,-97 -32,-158c-36,-75 -110,-155 -175,-188c-22,-11 -41,-19 -43,-17c-1,2 -22,41 -45,88c-23,47 -44,87 -46,89c-2,2 -26,-17 -53,-41c-94,-85 -243,-143 -398,-155l-81,-6l-8,48c-11,79 2,243 26,315c28,81 40,105 86,165c37,49 35,64 -8,65c-29,0 -148,51 -148,64c0,25 60,114 104,154c26,24 79,59 119,78c66,32 78,35 140,31c55,-4 85,-13 150,-45z"></path></g></g></g></g></g></svg>